<?xml version="1.0" standalone="no"?>
<svg xmlns:xlink="http://www.w3.org/1999/xlink" id="wave" style="transform:rotate(0deg); transition: 0.3s" viewBox="0 0 1440 490" version="1.1" xmlns="http://www.w3.org/2000/svg"><defs><linearGradient id="sw-gradient-0" x1="0" x2="0" y1="1" y2="0"><stop stop-color="rgba(165, 30, 55, 1)" offset="0%"/><stop stop-color="rgba(153, 52, 65, 1)" offset="100%"/></linearGradient></defs><path style="transform:translate(0, 0px); opacity:1" fill="url(#sw-gradient-0)" d="M0,0L80,73.5C160,147,320,294,480,343C640,392,800,343,960,318.5C1120,294,1280,294,1440,285.8C1600,278,1760,261,1920,269.5C2080,278,2240,310,2400,277.7C2560,245,2720,147,2880,114.3C3040,82,3200,114,3360,114.3C3520,114,3680,82,3840,114.3C4000,147,4160,245,4320,269.5C4480,294,4640,245,4800,253.2C4960,261,5120,327,5280,318.5C5440,310,5600,229,5760,163.3C5920,98,6080,49,6240,89.8C6400,131,6560,261,6720,318.5C6880,376,7040,359,7200,318.5C7360,278,7520,212,7680,155.2C7840,98,8000,49,8160,98C8320,147,8480,294,8640,294C8800,294,8960,147,9120,138.8C9280,131,9440,261,9600,302.2C9760,343,9920,294,10080,285.8C10240,278,10400,310,10560,269.5C10720,229,10880,114,11040,57.2C11200,0,11360,0,11440,0L11520,0L11520,490L11440,490C11360,490,11200,490,11040,490C10880,490,10720,490,10560,490C10400,490,10240,490,10080,490C9920,490,9760,490,9600,490C9440,490,9280,490,9120,490C8960,490,8800,490,8640,490C8480,490,8320,490,8160,490C8000,490,7840,490,7680,490C7520,490,7360,490,7200,490C7040,490,6880,490,6720,490C6560,490,6400,490,6240,490C6080,490,5920,490,5760,490C5600,490,5440,490,5280,490C5120,490,4960,490,4800,490C4640,490,4480,490,4320,490C4160,490,4000,490,3840,490C3680,490,3520,490,3360,490C3200,490,3040,490,2880,490C2720,490,2560,490,2400,490C2240,490,2080,490,1920,490C1760,490,1600,490,1440,490C1280,490,1120,490,960,490C800,490,640,490,480,490C320,490,160,490,80,490L0,490Z"/></svg>