<?xml version="1.0" standalone="no"?>
<svg xmlns:xlink="http://www.w3.org/1999/xlink" id="wave" style="transform:rotate(180deg); transition: 0.3s" viewBox="0 0 1440 150" version="1.1" xmlns="http://www.w3.org/2000/svg"><defs><linearGradient id="sw-gradient-0" x1="0" x2="0" y1="1" y2="0"><stop stop-color="rgba(153, 52, 65, 1)" offset="0%"/><stop stop-color="rgba(165, 30, 55, 1)" offset="100%"/></linearGradient></defs><path style="transform:translate(0, 0px); opacity:1" fill="url(#sw-gradient-0)" d="M0,120L40,112.5C80,105,160,90,240,87.5C320,85,400,95,480,105C560,115,640,125,720,112.5C800,100,880,65,960,57.5C1040,50,1120,70,1200,65C1280,60,1360,30,1440,20C1520,10,1600,20,1680,37.5C1760,55,1840,80,1920,75C2000,70,2080,35,2160,35C2240,35,2320,70,2400,87.5C2480,105,2560,105,2640,100C2720,95,2800,85,2880,70C2960,55,3040,35,3120,40C3200,45,3280,75,3360,95C3440,115,3520,125,3600,120C3680,115,3760,95,3840,77.5C3920,60,4000,45,4080,35C4160,25,4240,20,4320,30C4400,40,4480,65,4560,67.5C4640,70,4720,50,4800,47.5C4880,45,4960,60,5040,72.5C5120,85,5200,95,5280,105C5360,115,5440,125,5520,112.5C5600,100,5680,65,5720,47.5L5760,30L5760,150L5720,150C5680,150,5600,150,5520,150C5440,150,5360,150,5280,150C5200,150,5120,150,5040,150C4960,150,4880,150,4800,150C4720,150,4640,150,4560,150C4480,150,4400,150,4320,150C4240,150,4160,150,4080,150C4000,150,3920,150,3840,150C3760,150,3680,150,3600,150C3520,150,3440,150,3360,150C3280,150,3200,150,3120,150C3040,150,2960,150,2880,150C2800,150,2720,150,2640,150C2560,150,2480,150,2400,150C2320,150,2240,150,2160,150C2080,150,2000,150,1920,150C1840,150,1760,150,1680,150C1600,150,1520,150,1440,150C1360,150,1280,150,1200,150C1120,150,1040,150,960,150C880,150,800,150,720,150C640,150,560,150,480,150C400,150,320,150,240,150C160,150,80,150,40,150L0,150Z"/></svg>