<?xml version="1.0" standalone="no"?>
<svg xmlns:xlink="http://www.w3.org/1999/xlink" id="wave" style="transform:rotate(180deg); transition: 0.3s" viewBox="0 0 1440 390" version="1.1" xmlns="http://www.w3.org/2000/svg"><defs><linearGradient id="sw-gradient-0" x1="0" x2="0" y1="1" y2="0"><stop stop-color="rgba(153, 52, 65, 1)" offset="0%"/><stop stop-color="rgba(165, 30, 55, 1)" offset="100%"/></linearGradient></defs><path style="transform:translate(0, 0px); opacity:1" fill="url(#sw-gradient-0)" d="M0,78L40,78C80,78,160,78,240,117C320,156,400,234,480,221C560,208,640,104,720,78C800,52,880,104,960,156C1040,208,1120,260,1200,253.5C1280,247,1360,182,1440,162.5C1520,143,1600,169,1680,149.5C1760,130,1840,65,1920,78C2000,91,2080,182,2160,182C2240,182,2320,91,2400,104C2480,117,2560,234,2640,286C2720,338,2800,325,2880,286C2960,247,3040,182,3120,175.5C3200,169,3280,221,3360,201.5C3440,182,3520,91,3600,84.5C3680,78,3760,156,3840,201.5C3920,247,4000,260,4080,234C4160,208,4240,143,4320,156C4400,169,4480,260,4560,260C4640,260,4720,169,4800,143C4880,117,4960,156,5040,201.5C5120,247,5200,299,5280,273C5360,247,5440,143,5520,110.5C5600,78,5680,117,5720,136.5L5760,156L5760,390L5720,390C5680,390,5600,390,5520,390C5440,390,5360,390,5280,390C5200,390,5120,390,5040,390C4960,390,4880,390,4800,390C4720,390,4640,390,4560,390C4480,390,4400,390,4320,390C4240,390,4160,390,4080,390C4000,390,3920,390,3840,390C3760,390,3680,390,3600,390C3520,390,3440,390,3360,390C3280,390,3200,390,3120,390C3040,390,2960,390,2880,390C2800,390,2720,390,2640,390C2560,390,2480,390,2400,390C2320,390,2240,390,2160,390C2080,390,2000,390,1920,390C1840,390,1760,390,1680,390C1600,390,1520,390,1440,390C1360,390,1280,390,1200,390C1120,390,1040,390,960,390C880,390,800,390,720,390C640,390,560,390,480,390C400,390,320,390,240,390C160,390,80,390,40,390L0,390Z"/></svg>