<?xml version="1.0" encoding="utf-8"?>
<!-- Generator: Adobe Illustrator 26.2.1, SVG Export Plug-In . SVG Version: 6.00 Build 0)  -->
<svg version="1.1" id="Layer_1" xmlns="http://www.w3.org/2000/svg" xmlns:xlink="http://www.w3.org/1999/xlink" x="0px" y="0px"
	 viewBox="0 0 1080 1080" style="enable-background:new 0 0 1080 1080;" xml:space="preserve">
<style type="text/css">
	.st0{fill:#89243E;}
	.st1{fill:#38404A;}
	.st2{fill:#FFC83E;}
	.st3{fill:#231F20;}
	.st4{fill:#E6E7E8;}
</style>
<g>
	<g>
		<path class="st0" d="M603.87,516.02c-2.21,0.64-4.1,1.55-5.67,2.75l2.75,5.11c1.12-0.94,2.5-1.67,4.13-2.19s3.29-0.78,4.97-0.78
			c2.47,0,4.33,0.56,5.59,1.68c1.25,1.12,1.88,2.73,1.88,4.83v0.45h-7.75c-4.31,0-7.46,0.82-9.46,2.44c-2,1.63-3,3.79-3,6.49
			c0,1.72,0.46,3.27,1.38,4.63c0.92,1.37,2.22,2.43,3.9,3.2c1.68,0.77,3.65,1.15,5.9,1.15c2.25,0,4.16-0.35,5.75-1.04
			c1.59-0.69,2.82-1.69,3.68-3v3.65h6.63v-17.58c0-4.27-1.17-7.46-3.51-9.57c-2.34-2.11-5.72-3.17-10.14-3.17
			C608.41,515.07,606.08,515.39,603.87,516.02z M617.51,536.02c-0.56,1.5-1.52,2.65-2.89,3.45s-2.93,1.21-4.69,1.21
			c-1.8,0-3.2-0.37-4.21-1.12c-1.01-0.75-1.52-1.76-1.52-3.03c0-2.66,2.02-3.99,6.07-3.99h7.24V536.02z"/>
		<rect x="633.51" y="503.73" class="st0" width="7.02" height="41.67"/>
		<path class="st0" d="M655.22,549.89c-0.81,0.64-1.83,0.96-3.06,0.96c-0.94,0-1.86-0.19-2.78-0.56c-0.92-0.37-1.71-0.88-2.39-1.52
			l-2.81,5.17c0.94,0.86,2.13,1.53,3.59,2.02c1.46,0.49,2.94,0.73,4.44,0.73c2.66,0,4.92-0.66,6.8-1.99
			c1.87-1.33,3.46-3.62,4.77-6.88l14.04-32.4h-6.74l-9.49,22.18l-9.43-22.18h-7.3l13.08,30.1l-0.5,1.18
			C656.76,548.18,656.03,549.25,655.22,549.89z"/>
		<path class="st0" d="M691.58,527.87c-4.31,0-7.46,0.82-9.46,2.44c-2,1.63-3,3.79-3,6.49c0,1.72,0.46,3.27,1.38,4.63
			c0.92,1.37,2.22,2.43,3.9,3.2s3.65,1.15,5.9,1.15c2.25,0,4.16-0.35,5.75-1.04c1.59-0.69,2.82-1.69,3.68-3v3.65h6.63v-17.58
			c0-4.27-1.17-7.46-3.51-9.57c-2.34-2.11-5.72-3.17-10.14-3.17c-2.47,0-4.81,0.32-7.02,0.95c-2.21,0.64-4.1,1.55-5.67,2.75
			l2.75,5.11c1.12-0.94,2.5-1.67,4.13-2.19s3.29-0.78,4.97-0.78c2.47,0,4.33,0.56,5.59,1.68c1.25,1.12,1.88,2.73,1.88,4.83v0.45
			H691.58z M699.33,536.02c-0.56,1.5-1.52,2.65-2.89,3.45c-1.37,0.81-2.93,1.21-4.69,1.21c-1.8,0-3.2-0.37-4.21-1.12
			c-1.01-0.75-1.52-1.76-1.52-3.03c0-2.66,2.02-3.99,6.07-3.99h7.24V536.02z"/>
		<path class="st0" d="M722.36,530.23c0-2.92,0.75-5.16,2.25-6.71c1.5-1.55,3.54-2.33,6.12-2.33c2.28,0,4.04,0.67,5.28,1.99
			c1.23,1.33,1.85,3.31,1.85,5.93v16.29h7.02v-17.19c0-4.34-1.14-7.62-3.43-9.83c-2.29-2.21-5.32-3.31-9.1-3.31
			c-2.21,0-4.19,0.36-5.95,1.07c-1.76,0.71-3.22,1.76-4.38,3.15v-3.88h-6.68v29.99h7.02V530.23z"/>
		<polygon class="st0" points="788.96,545.39 800.02,515.41 793.79,515.41 785.65,537.65 777.56,515.41 771.66,515.41 
			763.41,537.53 755.49,515.41 748.86,515.41 759.87,545.39 766.61,545.39 774.47,524.73 782.22,545.39 		"/>
		<path class="st0" d="M603.53,595.75c0-3,0.77-5.29,2.3-6.88c1.53-1.59,3.67-2.39,6.4-2.39c0.49,0,1.03,0.06,1.63,0.17v-6.68
			c-5.09,0-8.65,1.57-10.67,4.72v-4.38h-6.68v29.99h7.02V595.75z"/>
		<path class="st0" d="M639.64,588.08c1.16,1.33,1.74,3.31,1.74,5.93v16.29h7.02v-15.22c0-2.88,0.71-5.1,2.13-6.65
			c1.42-1.55,3.31-2.33,5.67-2.33c2.17,0,3.84,0.67,5,1.99c1.16,1.33,1.74,3.31,1.74,5.93v16.29h7.02v-17.19
			c0-4.38-1.1-7.66-3.31-9.86s-5.2-3.29-8.98-3.29c-2.36,0-4.51,0.44-6.46,1.32c-1.95,0.88-3.54,2.11-4.78,3.68
			c-1.01-1.65-2.39-2.89-4.13-3.74c-1.74-0.84-3.74-1.26-5.98-1.26c-2.06,0-3.93,0.36-5.61,1.07c-1.68,0.71-3.09,1.74-4.21,3.09
			v-3.82h-6.68v29.99h7.02v-15.22c0-2.92,0.7-5.15,2.11-6.68c1.4-1.53,3.3-2.3,5.7-2.3C636.81,586.08,638.48,586.75,639.64,588.08z"
			/>
		<path class="st0" d="M704.05,610.29v-17.58c0-4.27-1.17-7.46-3.51-9.57c-2.34-2.11-5.72-3.17-10.14-3.17
			c-2.47,0-4.81,0.32-7.02,0.95c-2.21,0.64-4.1,1.55-5.67,2.75l2.75,5.11c1.12-0.94,2.5-1.67,4.13-2.19
			c1.63-0.52,3.29-0.78,4.97-0.78c2.47,0,4.33,0.56,5.59,1.68c1.25,1.12,1.88,2.73,1.88,4.83v0.45h-7.75
			c-4.31,0-7.46,0.82-9.46,2.44c-2,1.63-3,3.79-3,6.49c0,1.72,0.46,3.27,1.38,4.63c0.92,1.37,2.22,2.43,3.9,3.2s3.65,1.15,5.9,1.15
			c2.25,0,4.16-0.35,5.75-1.04c1.59-0.69,2.82-1.69,3.68-3v3.65H704.05z M697.03,600.91c-0.56,1.5-1.52,2.65-2.89,3.45
			c-1.37,0.81-2.93,1.21-4.69,1.21c-1.8,0-3.2-0.37-4.21-1.12c-1.01-0.75-1.52-1.76-1.52-3.03c0-2.66,2.02-3.99,6.07-3.99h7.24
			V600.91z"/>
		<path class="st0" d="M720.06,595.13c0-2.92,0.75-5.16,2.25-6.71c1.5-1.55,3.54-2.33,6.12-2.33c2.28,0,4.04,0.67,5.28,1.99
			c1.23,1.33,1.85,3.31,1.85,5.93v16.29h7.02v-17.19c0-4.34-1.14-7.62-3.43-9.83c-2.29-2.21-5.32-3.31-9.1-3.31
			c-2.21,0-4.19,0.36-5.95,1.07c-1.76,0.71-3.22,1.76-4.38,3.15v-3.88h-6.68v29.99h7.02V595.13z"/>
		<path class="st0" d="M620.77,660.35c0,2.92-0.74,5.16-2.22,6.71c-1.48,1.55-3.47,2.33-5.98,2.33c-2.25,0-3.98-0.66-5.19-1.99
			s-1.83-3.34-1.83-6.04v-16.17h-7.02v17.13c0,4.38,1.15,7.69,3.45,9.91c2.3,2.23,5.46,3.34,9.46,3.34c1.95,0,3.76-0.37,5.45-1.1
			c1.68-0.73,3.09-1.77,4.21-3.12v3.82h6.68v-29.99h-7.02V660.35z"/>
		<path class="st0" d="M650.7,650.8c1.53,0,2.95,0.35,4.24,1.04c1.29,0.69,2.37,1.73,3.23,3.12l5.39-3.14
			c-1.12-2.25-2.8-3.97-5.03-5.17c-2.23-1.2-4.82-1.8-7.78-1.8c-3.14,0-5.94,0.65-8.4,1.97c-2.45,1.31-4.37,3.13-5.76,5.45
			c-1.38,2.32-2.08,4.96-2.08,7.92s0.69,5.61,2.08,7.95c1.39,2.34,3.32,4.16,5.79,5.48c2.47,1.31,5.26,1.97,8.37,1.97
			c2.92,0,5.49-0.61,7.72-1.83c2.23-1.22,3.92-2.95,5.08-5.19l-5.39-3.14c-0.86,1.39-1.94,2.42-3.23,3.12
			c-1.29,0.69-2.71,1.04-4.24,1.04c-2.66,0-4.84-0.85-6.54-2.55c-1.71-1.7-2.55-3.98-2.55-6.82s0.86-5.12,2.58-6.82
			C645.91,651.65,648.08,650.8,650.7,650.8z"/>
		<path class="st0" d="M681.08,644.84c-2.47,0-4.81,0.32-7.02,0.95c-2.21,0.64-4.1,1.55-5.67,2.75l2.75,5.11
			c1.12-0.94,2.5-1.67,4.13-2.19s3.29-0.78,4.97-0.78c2.47,0,4.33,0.56,5.59,1.68c1.25,1.12,1.88,2.73,1.88,4.83v0.45h-7.75
			c-4.31,0-7.46,0.82-9.46,2.44c-2,1.63-3,3.79-3,6.49c0,1.72,0.46,3.27,1.38,4.63c0.92,1.37,2.22,2.43,3.9,3.2
			c1.68,0.77,3.65,1.15,5.9,1.15c2.25,0,4.16-0.35,5.75-1.04c1.59-0.69,2.82-1.69,3.68-3v3.65h6.63v-17.58
			c0-4.27-1.17-7.46-3.51-9.57C688.88,645.9,685.5,644.84,681.08,644.84z M687.71,665.79c-0.56,1.5-1.52,2.65-2.89,3.45
			c-1.37,0.81-2.93,1.21-4.69,1.21c-1.8,0-3.2-0.37-4.21-1.12c-1.01-0.75-1.52-1.76-1.52-3.03c0-2.66,2.02-3.99,6.07-3.99h7.24
			V665.79z"/>
		<path class="st0" d="M721.74,673.54l-1.97-5c-1.05,0.82-2.36,1.23-3.93,1.23c-1.35,0-2.38-0.38-3.09-1.15s-1.07-1.88-1.07-3.34
			v-14.27h8.03v-5.61h-8.03v-6.85h-7.02v6.85h-4.94v5.61h4.94v14.43c0,3.3,0.9,5.8,2.69,7.52c1.8,1.72,4.34,2.58,7.64,2.58
			c1.31,0,2.55-0.17,3.73-0.51C719.92,674.72,720.92,674.22,721.74,673.54z"/>
		<rect x="727.52" y="645.18" class="st0" width="7.02" height="29.99"/>
		<path class="st0" d="M734.26,632.97c-0.86-0.77-1.93-1.15-3.2-1.15c-1.27,0-2.34,0.4-3.2,1.21s-1.29,1.81-1.29,3
			c0,1.2,0.43,2.2,1.29,3.01s1.93,1.21,3.2,1.21c1.31,0,2.39-0.42,3.23-1.26c0.84-0.84,1.26-1.88,1.26-3.12
			C735.55,634.7,735.13,633.73,734.26,632.97z"/>
		<path class="st0" d="M765.49,646.81c-2.43-1.31-5.18-1.97-8.26-1.97c-3.03,0-5.77,0.65-8.2,1.97c-2.43,1.31-4.33,3.13-5.7,5.45
			c-1.37,2.32-2.05,4.96-2.05,7.92s0.68,5.61,2.05,7.95c1.37,2.34,3.26,4.16,5.7,5.48c2.43,1.31,5.17,1.97,8.2,1.97
			c3.07,0,5.82-0.65,8.26-1.97s4.33-3.13,5.7-5.48c1.37-2.34,2.05-4.99,2.05-7.95s-0.69-5.6-2.05-7.92
			C769.82,649.94,767.92,648.12,765.49,646.81z M763.63,666.97c-1.68,1.72-3.82,2.58-6.4,2.58c-2.58,0-4.71-0.86-6.37-2.58
			c-1.67-1.72-2.5-3.99-2.5-6.8c0-2.81,0.83-5.07,2.5-6.8c1.66-1.72,3.79-2.58,6.37-2.58c2.58,0,4.72,0.86,6.4,2.58
			c1.68,1.72,2.53,3.99,2.53,6.8C766.16,662.98,765.32,665.25,763.63,666.97z"/>
		<path class="st0" d="M796.99,644.84c-2.21,0-4.19,0.36-5.95,1.07c-1.76,0.71-3.22,1.76-4.38,3.15v-3.88h-6.68v29.99H787v-15.16
			c0-2.92,0.75-5.16,2.25-6.71c1.5-1.55,3.54-2.33,6.12-2.33c2.28,0,4.04,0.67,5.28,1.99c1.23,1.33,1.85,3.31,1.85,5.93v16.29h7.02
			v-17.19c0-4.34-1.14-7.62-3.43-9.83C803.81,645.95,800.77,644.84,796.99,644.84z"/>
		<path class="st0" d="M828.78,657.65c-4.31,0-7.46,0.82-9.46,2.44c-2,1.63-3,3.79-3,6.49c0,1.72,0.46,3.27,1.38,4.63
			c0.92,1.37,2.22,2.43,3.9,3.2c1.68,0.77,3.65,1.15,5.9,1.15c2.25,0,4.16-0.35,5.75-1.04c1.59-0.69,2.82-1.69,3.68-3v3.65h6.63
			v-17.58c0-4.27-1.17-7.46-3.51-9.57c-2.34-2.11-5.72-3.17-10.14-3.17c-2.47,0-4.81,0.32-7.02,0.95c-2.21,0.64-4.1,1.55-5.67,2.75
			l2.75,5.11c1.12-0.94,2.5-1.67,4.13-2.19c1.63-0.52,3.29-0.78,4.97-0.78c2.47,0,4.33,0.56,5.59,1.68
			c1.25,1.12,1.88,2.73,1.88,4.83v0.45H828.78z M836.53,665.79c-0.56,1.5-1.52,2.65-2.89,3.45c-1.37,0.81-2.93,1.21-4.69,1.21
			c-1.8,0-3.2-0.37-4.21-1.12c-1.01-0.75-1.52-1.76-1.52-3.03c0-2.66,2.02-3.99,6.07-3.99h7.24V665.79z"/>
		<rect x="852.53" y="633.5" class="st0" width="7.02" height="41.67"/>
		<path class="st0" d="M614.93,709.76c-2.21,0-4.19,0.36-5.95,1.07c-1.76,0.71-3.22,1.76-4.38,3.15v-3.88h-6.68v29.99h7.02v-15.16
			c0-2.92,0.75-5.16,2.25-6.71c1.5-1.55,3.54-2.33,6.12-2.33c2.28,0,4.04,0.67,5.28,1.99c1.23,1.33,1.85,3.31,1.85,5.93v16.29h7.02
			V722.9c0-4.34-1.14-7.62-3.43-9.83C621.74,710.86,618.71,709.76,614.93,709.76z"/>
		<path class="st0" d="M653.62,723.8c-1.54-0.49-3.5-0.92-5.9-1.29c-2.4-0.41-4.17-0.85-5.31-1.32c-1.14-0.47-1.71-1.26-1.71-2.39
			c0-1.01,0.53-1.83,1.6-2.44c1.07-0.62,2.63-0.93,4.69-0.93c3.18,0,6.05,0.75,8.59,2.24l2.69-5.33c-1.31-0.79-3-1.41-5.05-1.88
			s-4.12-0.7-6.18-0.7c-4.04,0-7.26,0.85-9.63,2.56c-2.38,1.7-3.57,3.98-3.57,6.82c0,2.17,0.57,3.87,1.71,5.08
			c1.14,1.22,2.49,2.07,4.04,2.56c1.55,0.49,3.57,0.92,6.04,1.29c2.36,0.38,4.07,0.77,5.14,1.18c1.07,0.41,1.6,1.14,1.6,2.19
			c0,2.21-2.1,3.31-6.29,3.31c-1.83,0-3.7-0.27-5.59-0.81c-1.89-0.54-3.51-1.27-4.86-2.16l-2.7,5.34c1.39,0.97,3.24,1.78,5.56,2.41
			s4.7,0.96,7.13,0.96c4.19,0,7.51-0.84,9.94-2.53c2.43-1.68,3.65-3.93,3.65-6.74c0-2.13-0.55-3.78-1.66-4.94
			C656.48,725.11,655.15,724.28,653.62,723.8z"/>
		<path class="st0" d="M687.32,725.26c0,2.92-0.74,5.16-2.22,6.71c-1.48,1.55-3.47,2.33-5.98,2.33c-2.25,0-3.98-0.66-5.19-1.99
			s-1.83-3.34-1.83-6.04v-16.17h-7.02v17.13c0,4.38,1.15,7.69,3.45,9.91c2.3,2.23,5.46,3.34,9.46,3.34c1.95,0,3.76-0.37,5.45-1.1
			c1.68-0.73,3.09-1.77,4.21-3.12v3.82h6.68v-29.99h-7.02V725.26z"/>
		<rect x="703.54" y="698.41" class="st0" width="7.02" height="41.67"/>
		<path class="st0" d="M733.36,734.69c-1.35,0-2.38-0.38-3.09-1.15c-0.71-0.77-1.07-1.88-1.07-3.34v-14.27h8.03v-5.61h-8.03v-6.85
			h-7.02v6.85h-4.94v5.61h4.94v14.43c0,3.3,0.9,5.8,2.69,7.52c1.8,1.72,4.34,2.58,7.64,2.58c1.31,0,2.55-0.17,3.73-0.51
			c1.18-0.34,2.18-0.84,3.01-1.52l-1.97-5C736.25,734.28,734.94,734.69,733.36,734.69z"/>
		<path class="st0" d="M756.5,709.76c-2.47,0-4.81,0.32-7.02,0.95c-2.21,0.64-4.1,1.55-5.67,2.75l2.75,5.11
			c1.12-0.94,2.5-1.67,4.13-2.19c1.63-0.52,3.29-0.78,4.97-0.78c2.47,0,4.33,0.56,5.59,1.68c1.25,1.12,1.88,2.73,1.88,4.83v0.45
			h-7.75c-4.31,0-7.46,0.82-9.46,2.44c-2,1.63-3,3.79-3,6.49c0,1.72,0.46,3.27,1.38,4.63c0.92,1.37,2.22,2.43,3.9,3.2
			c1.68,0.77,3.65,1.15,5.9,1.15c2.25,0,4.16-0.35,5.75-1.04c1.59-0.69,2.82-1.69,3.68-3v3.65h6.63V722.5
			c0-4.27-1.17-7.46-3.51-9.57C764.3,710.81,760.92,709.76,756.5,709.76z M763.13,730.7c-0.56,1.5-1.52,2.65-2.89,3.45
			c-1.37,0.81-2.93,1.21-4.69,1.21c-1.8,0-3.2-0.37-4.21-1.12c-1.01-0.75-1.52-1.76-1.52-3.03c0-2.66,2.02-3.99,6.07-3.99h7.24
			V730.7z"/>
		<path class="st0" d="M796.15,709.76c-2.21,0-4.19,0.36-5.95,1.07c-1.76,0.71-3.22,1.76-4.38,3.15v-3.88h-6.68v29.99h7.02v-15.16
			c0-2.92,0.75-5.16,2.25-6.71c1.5-1.55,3.54-2.33,6.12-2.33c2.28,0,4.04,0.67,5.28,1.99c1.23,1.33,1.85,3.31,1.85,5.93v16.29h7.02
			V722.9c0-4.34-1.14-7.62-3.43-9.83C802.96,710.86,799.93,709.76,796.15,709.76z"/>
		<path class="st0" d="M831.58,715.71c1.53,0,2.95,0.35,4.24,1.04c1.29,0.69,2.37,1.73,3.23,3.12l5.39-3.14
			c-1.12-2.25-2.8-3.97-5.03-5.17c-2.23-1.2-4.82-1.8-7.78-1.8c-3.14,0-5.94,0.65-8.4,1.97s-4.37,3.13-5.76,5.45
			c-1.38,2.32-2.08,4.96-2.08,7.92s0.69,5.61,2.08,7.95c1.39,2.34,3.32,4.16,5.79,5.48c2.47,1.31,5.26,1.97,8.37,1.97
			c2.92,0,5.49-0.61,7.72-1.83c2.23-1.22,3.92-2.95,5.08-5.19l-5.39-3.14c-0.86,1.39-1.94,2.42-3.23,3.12
			c-1.29,0.69-2.71,1.04-4.24,1.04c-2.66,0-4.84-0.85-6.54-2.55c-1.71-1.7-2.55-3.98-2.55-6.82s0.86-5.12,2.58-6.82
			C826.79,716.56,828.96,715.71,831.58,715.71z"/>
		<path class="st0" d="M871.46,710.09l-9.49,22.18l-9.43-22.18h-7.3l13.08,30.1l-0.5,1.18c-0.67,1.5-1.41,2.56-2.22,3.2
			c-0.81,0.64-1.83,0.96-3.06,0.96c-0.94,0-1.86-0.19-2.78-0.56c-0.92-0.37-1.71-0.88-2.39-1.52l-2.81,5.17
			c0.94,0.86,2.13,1.53,3.59,2.02c1.46,0.49,2.94,0.73,4.44,0.73c2.66,0,4.92-0.66,6.8-1.99c1.87-1.33,3.46-3.62,4.77-6.88
			l14.04-32.4H871.46z"/>
		<path class="st0" d="M606.59,467.01c0.1-5.45-2.52-10.75-6.77-13.93c-12.15-7.2-24.41-14.24-36.81-21.03v-115.3H201.8v117.43
			c1.93-3.84,4.52-7.66,7.98-11.26l1.07-1.11c-3.09,34.34,0.87,66.66,31.51,81.79c2.15,1.08,4.31,1.95,6.59,2.76
			c11.17,4.16,24.11,6.15,38.02,9.64l0.06,0.11c1.59,0.41,3.18,0.96,4.66,1.42c4.11,1.3,7.87,2.71,11.42,4.23
			c0.06,0.11,0.22,0.16,0.36,0.16c0.66,0.34,1.35,0.74,2.01,1.09c5.61,2.72,10.6,6.1,15.17,10.12c2.8,2.46,5.4,5.23,7.88,8.41
			c-0.03,0.08-0.13,0.14-0.16,0.22c0.08,0.16,0.2,0.38,0.34,0.51c10.97-26.48,16.74-58.84,5.18-85.28
			c-6.06-13.76-11.99-25.94-20.31-37.56c-5.64-7.79-6.95-7.93-18.23-18.77c-15.55-15.08-26.85-18.82-46.25-27.43
			c9.84-2.37,19.35-2.58,28.73-1.34c18.43,2.51,35.38,11.56,48.74,24.55c11.42,11.11,23.55,25.56,30.04,38.55
			c-23.51-53.22-59.5-65.43-93.92-83.61c27.23-4.89,55.91,3.97,77.3,21.03c0.53,0.38,1.17,0.9,1.77,1.36
			c7.17,6.46,13.47,13.83,18.46,22.11c-5.38-9.75-12.58-18.31-20.84-25.77c-11.81-13.13-23.05-28.03-32.3-40.32
			c32.58,15.56,62.4,37.45,87.48,64.89c5.08,5.26,9.38,11.28,12.78,17.82c8.51,16.34,10.71,34.58,7.17,51.41
			c-3.15,14.02-4.67,28.28-4.51,42.71c0.12,14.24,1.88,28.45,5.31,42.55c1.35,5.76,3.13,11.43,5.08,17.02
			c1.12-0.1,2.4-0.15,3.95-0.2c8.34-0.35,10.47,1.36,10.47,1.36l1.14,1.4c0,0,3.43-0.41,6.79-0.17c3.36,0.24,8.89,3.07,9.53,8.93
			c0.5,5.86-3.63,9.8-3.63,9.8s-0.11,0.06-0.63-1.6c-0.29-0.81-0.9-1.59-2.02-2.04c-6.16,0.18-9.89,4.39-14.63,8.09
			c-2.24,1.65-4.81,3.05-7.35,4.24c-2.01,5.38-5.89,10.08-11.41,12.95c-4.38,2.28-9.5,3.16-14.34,2.44
			c-4,5.39-9.08,10.16-14.8,13.83c1.1-2.5,2.02-5.11,2.6-7.82c-3.31,13.07-11.95,24.86-24.29,31c-3.84,2-6.39,3.05-9.81,3.87
			c0.61,0.51,0.08,1.47-1.4,2.86c-10.15,8.24-16.19,17.51-14.05,30.35c-3.01,1.22-5.04,5.24-7.98,4.36
			c-1.77,3.33-6.9,3.66-8.94,0.53c0.24-0.06,0.46-0.17,0.68-0.28c1.89-0.99,3.01-2.94,2.89-5.01c1.71-0.68,3.35-1.75,4.7-3
			c3.46-3.38,4.96-8.43,3.85-13.21c3.62-4.02,2.62-6.73,3.45-10.8c2.5-2.06,4.65-4.41,6.52-6.9c-4.87,6.11-11.31,11.04-18.31,14.76
			c-3.36,2.92-5.07,7.18-4.8,11.51c0.28,2.12,0.61,4.22,0.16,6.38c-0.28,1.45-0.77,2.88-1.46,4.2c0.39,0.76,0.44,1.63,0.42,2.39
			l0.03,0.05c0.03,0.05,0.03,0.05,0.03,0.05c-0.03,0.08,0,0.14-0.05,0.16c-0.21,3.82-5.22,6.22-8.26,3.82
			c-3.2,1.12-6.5,0.98-9.52-0.2c-2.85-0.99-2.12-1.17-0.12-2.62c6.18,0.77,12.86-2.91,9.64-12.65c-3.27-10.12-4.7-20.79-4.39-31.41
			c-2.32,1.35-4.46,2.25-6.28,2.86c-3.26,1.14-4.78-0.47-4.78-0.47s0.11-0.06,0.19-0.17c-8.44,4.12-15.65,3.75-16.75,3.63
			c-3.31,1.31-6.18,2.12-8.2,2.48c-2.48,0.39-5.89-0.09-8.69-0.7c-2.76-0.56-4.96-1.2-4.96-1.2c-2.69,0.37-4.71,0.32-6.46,0.13
			c-6.2-0.69-8.4-3.19-8.4-3.19s13.36-3.52,35.07-12.55c13.93-5.74,24.75-10.96,30.73-14c-6.65,0.3-13.07-0.28-16.19-0.99
			c-0.08-0.03-0.16-0.05-0.3-0.05c6.65-2.02,13.22-3.79,19.77-5.34c-22.96-6.34-44.75-17.14-63.67-31.7
			c-7.15-5.42-13.94-11.45-20.32-18.03c-0.83-0.67-0.13-0.28-0.88-1.06c22.11,6.09,10.26,1.51-5.55-4.7
			c-3.97-1.62-6.6-3.74-10.59-7.25c-2.41-1.91-4.72-3.95-6.97-6.07v214h361.21v-27.87c1.11,1.24,2.42,2.3,3.96,3.14
			c2.43,1.31,5.17,1.97,8.2,1.97c3.07,0,5.82-0.65,8.26-1.97c2.43-1.31,4.33-3.13,5.7-5.48c1.37-2.34,2.05-4.99,2.05-7.95
			s-0.69-5.6-2.05-7.92c-1.37-2.32-3.27-4.14-5.7-5.45c-2.43-1.31-5.18-1.97-8.26-1.97c-3.03,0-5.77,0.65-8.2,1.97
			c-1.54,0.83-2.85,1.89-3.96,3.12v-42.63c0.65,0.53,1.33,1.02,2.08,1.44c2.3,1.27,4.9,1.91,7.78,1.91c2.06,0,3.94-0.36,5.64-1.07
			c1.71-0.71,3.14-1.78,4.3-3.2v3.88h6.74V633.5h-7.02v15.39c-1.16-1.35-2.56-2.36-4.21-3.03c-1.65-0.67-3.46-1.01-5.45-1.01
			c-2.88,0-5.48,0.64-7.78,1.91c-0.75,0.42-1.43,0.91-2.08,1.44v-42.5c1.11,1.2,2.41,2.22,3.96,3.03c2.51,1.31,5.41,1.97,8.71,1.97
			c2.58,0,4.9-0.41,6.96-1.23c2.06-0.82,3.76-2.04,5.11-3.65l-3.76-4.33c-2.13,2.17-4.85,3.26-8.14,3.26
			c-2.58,0-4.74-0.64-6.49-1.94c-1.74-1.29-2.82-3.04-3.23-5.25h23.53c0.07-0.9,0.11-1.59,0.11-2.08c0-3.07-0.64-5.78-1.94-8.11
			c-1.29-2.34-3.09-4.16-5.39-5.45c-2.3-1.29-4.91-1.94-7.83-1.94c-2.96,0-5.62,0.65-7.98,1.97c-1.39,0.78-2.59,1.75-3.62,2.89
			v-39.42h4.97v-15.16c0-2.92,0.75-5.16,2.25-6.71c1.5-1.55,3.54-2.33,6.12-2.33c2.28,0,4.04,0.67,5.28,1.99
			c1.23,1.33,1.85,3.31,1.85,5.93v16.29h7.02v-17.19c0-4.34-1.14-7.62-3.43-9.83c-2.29-2.21-5.32-3.31-9.1-3.31
			c-2.1,0-4,0.33-5.7,0.98c-1.71,0.66-3.14,1.6-4.3,2.84v-15.16h-4.97v-18.77c-9.76-1.14-20.77-1.37-29.13,6.49
			c-10.29-7.49-21.91-8.5-32.71-6.47c-1.6-11.09-1.6-11.09-1.6-11.09c13.43-11.63,28.75-11.65,40.03-12.93
			c-15.5-3.3-28.96,0.13-41.91,9.27c-16.26-7.87-19.43-9.4-35.69-17.27l71.89-35.94l29.13,17.59v0l35.01,21.14
			c1.33,1.06,2.36,2.28,3.18,3.58c1.97,3.11,2.57,6.7,2.01,9.81c1.51,0.34,2.83,1.15,3.79,2.28c0.96,1.14,1.54,2.59,1.54,4.22
			c0,2.56-1.43,4.76-3.52,5.91c-0.97,0.54-2.08,0.87-3.27,0.87c-0.99,0.01-1.88-0.17-2.66-0.49c-2.73-1.11-4.14-3.94-4.02-6.68
			c0.12-2.74,1.77-5.38,5.16-6.1c0,0,0,0,0,0c-0.02-0.67-0.09-1.29-0.17-1.87c-0.02-0.16-0.05-0.31-0.08-0.46
			c-0.08-0.44-0.17-0.85-0.29-1.24c-0.03-0.12-0.07-0.24-0.11-0.36c-1.03-3.1-3.18-4.54-5.98-4.87c-0.74-0.04-1.47-0.09-2.21-0.05
			c-0.58,0.04-1.18,0.1-1.8,0.21c-0.12,0.02-0.25,0.04-0.37,0.06c-6.74,1.27-15.22,6.08-21.47,9.89c-0.86,0.59-1.7,1.18-2.48,1.74
			c7.14-3.08,30.04-17.36,32.13-4.75c-8.39,3.8-5.95,18.31,4.43,18.02C612.41,485.57,614.77,471.4,606.59,467.01z M568.79,718.29
			c1.66-1.72,3.79-2.58,6.37-2.58c2.58,0,4.72,0.86,6.4,2.58c1.68,1.72,2.53,3.99,2.53,6.8s-0.84,5.07-2.53,6.8
			c-1.68,1.72-3.82,2.58-6.4,2.58c-2.58,0-4.71-0.86-6.37-2.58c-1.67-1.72-2.5-3.99-2.5-6.8S567.13,720.02,568.79,718.29z
			 M565.96,655.23c0.78-1.42,1.85-2.52,3.2-3.29c1.35-0.77,2.86-1.15,4.55-1.15c1.68,0,3.2,0.38,4.55,1.15
			c1.35,0.77,2.42,1.86,3.2,3.29c0.78,1.42,1.18,3.07,1.18,4.94c0,1.87-0.39,3.52-1.18,4.94c-0.79,1.42-1.85,2.52-3.2,3.29
			c-1.35,0.77-2.86,1.15-4.55,1.15c-1.68,0-3.2-0.38-4.55-1.15c-1.35-0.77-2.42-1.86-3.2-3.29c-0.79-1.42-1.18-3.07-1.18-4.94
			C564.78,658.31,565.17,656.66,565.96,655.23z M568.91,587.58c1.55-1.33,3.45-1.99,5.7-1.99c2.28,0,4.19,0.67,5.73,2.02
			c1.53,1.35,2.45,3.11,2.75,5.28h-17.01C566.4,590.67,567.35,588.9,568.91,587.58z M512.16,506.08h9.04v18.36l17.41-18.36h10.11
			l-16.29,17.52l17.24,21.79h-10.61l-12.58-15.44l-5.28,5.5v9.94h-9.04V506.08z M512.47,580.16c1.85-3.09,4.43-5.5,7.72-7.25
			c3.3-1.74,7-2.61,11.12-2.61c3.44,0,6.57,0.58,9.38,1.74c2.81,1.16,5.17,2.85,7.08,5.05l-5.84,5.39
			c-2.81-2.96-6.2-4.44-10.16-4.44c-2.51,0-4.74,0.52-6.68,1.57c-1.95,1.05-3.46,2.53-4.55,4.44c-1.09,1.91-1.63,4.1-1.63,6.57
			c0,2.43,0.54,4.6,1.63,6.51c1.09,1.91,2.59,3.4,4.52,4.46c1.93,1.07,4.13,1.6,6.6,1.6c2.62,0,4.98-0.56,7.07-1.68v-11.51h8.31
			v15.95c-2.13,1.61-4.6,2.85-7.41,3.7c-2.81,0.86-5.63,1.29-8.48,1.29c-4.08,0-7.75-0.87-11.01-2.61
			c-3.26-1.74-5.81-4.15-7.66-7.25c-1.85-3.09-2.78-6.58-2.78-10.47C509.69,586.74,510.61,583.25,512.47,580.16z M539.45,651.7v7.08
			H521.2v9.1h21.4v7.3h-30.44v-39.31h29.71v7.3H521.2v8.54H539.45z M512.47,709.95c1.85-3.09,4.4-5.5,7.64-7.25
			c3.24-1.74,6.88-2.61,10.92-2.61c3.41,0,6.49,0.6,9.24,1.8c2.75,1.2,5.06,2.92,6.94,5.17l-5.84,5.39c-2.66-3.07-5.95-4.6-9.88-4.6
			c-2.43,0-4.61,0.53-6.51,1.6c-1.91,1.07-3.4,2.56-4.47,4.47c-1.07,1.91-1.6,4.08-1.6,6.51c0,2.43,0.53,4.6,1.6,6.51
			c1.07,1.91,2.56,3.4,4.47,4.46c1.91,1.07,4.08,1.6,6.51,1.6c3.93,0,7.22-1.55,9.88-4.66l5.84,5.39c-1.87,2.28-4.19,4.02-6.96,5.22
			c-2.77,1.2-5.86,1.8-9.27,1.8c-4.01,0-7.63-0.87-10.87-2.61c-3.24-1.74-5.78-4.15-7.64-7.25c-1.85-3.09-2.78-6.58-2.78-10.47
			C509.69,716.53,510.61,713.04,512.47,709.95z"/>
	</g>
</g>
</svg>
